<svg xmlns="http://www.w3.org/2000/svg" width="27" height="27" viewBox="0 0 27 27">
    <g fill="none" fill-rule="evenodd">
        <g>
            <g transform="translate(1.000000, 1.000000)">
                <path fill="#233562" d="M9.869 18.76c-.84-.257-1.512-.613-2.015-1.066-.233-.197-.35-.448-.35-.755 0-.22.062-.408.184-.561.123-.153.27-.23.442-.23s.38.08.626.24c1.091.809 2.336 1.214 3.735 1.214.981 0 1.736-.184 2.263-.552.527-.368.791-.896.791-1.583 0-.54-.245-.944-.736-1.214-.49-.27-1.276-.528-2.355-.773-1.03-.22-1.877-.472-2.54-.754-.662-.283-1.18-.666-1.554-1.15-.374-.485-.561-1.101-.561-1.85 0-.748.205-1.413.616-1.996.411-.583.985-1.037 1.72-1.362.737-.325 1.577-.487 2.521-.487.871 0 1.675.122 2.41.368.737.245 1.362.607 1.878 1.085.245.209.368.46.368.755 0 .208-.065.392-.194.552-.128.16-.279.239-.45.239-.16 0-.362-.08-.608-.24-.564-.429-1.094-.738-1.591-.928-.497-.19-1.095-.286-1.794-.286-.945 0-1.68.194-2.208.58-.528.386-.791.923-.791 1.61 0 .589.233 1.033.699 1.334.466.3 1.214.573 2.245.819 1.08.245 1.953.5 2.622.763.668.264 1.202.626 1.6 1.086.4.46.598 1.052.598 1.776 0 .736-.205 1.389-.616 1.96-.41.57-.987 1.011-1.73 1.324-.742.313-1.597.47-2.566.47-.933 0-1.819-.13-2.66-.387z"/>
                <path stroke="#233562" stroke-linecap="round" stroke-width="1.4" d="M12.5 4.5v16"/>
                <circle cx="12.5" cy="12.5" r="12" stroke="#233562" stroke-width="1.8"/>
            </g>
        </g>
    </g>
</svg>
