<?xml version="1.0" standalone="no"?>
<!DOCTYPE svg PUBLIC "-//W3C//DTD SVG 1.0//EN" "http://www.w3.org/TR/2001/REC-SVG-20010904/DTD/svg10.dtd">
<svg xmlns="http://www.w3.org/2000/svg" xmlns:xlink="http://www.w3.org/1999/xlink" id="body_1" width="30" height="30">

<g transform="matrix(1.1111112 0 0 1.1111112 0 0)">
	<g>
	</g>
    <path d="M5.023438 7.117188C 5.023438 6.425781 4.464844 5.863281 3.769531 5.863281C 3.074219 5.863281 2.511719 6.425781 2.511719 7.117188C 2.511719 7.8125 3.074219 8.375 3.769531 8.375C 4.464844 8.375 5.023438 7.8125 5.023438 7.117188zM3.351562 7.117188C 3.351562 6.886719 3.535156 6.699219 3.769531 6.699219C 4 6.699219 4.1875 6.886719 4.1875 7.117188C 4.1875 7.351562 4 7.539062 3.769531 7.539062C 3.535156 7.539062 3.351562 7.351562 3.351562 7.117188z" stroke="none" fill="#242F51" fill-rule="nonzero" />
	<g>
	</g>
    <path d="M10.050781 2.929688C 7.738281 2.929688 5.863281 4.808594 5.863281 7.117188C 5.863281 9.429688 7.738281 11.308594 10.050781 11.308594C 12.363281 11.308594 14.238281 9.429688 14.238281 7.117188C 14.234375 4.808594 12.363281 2.933594 10.050781 2.929688zM10.050781 10.46875C 8.199219 10.46875 6.699219 8.96875 6.699219 7.117188C 6.699219 5.269531 8.199219 3.769531 10.050781 3.769531C 11.898438 3.769531 13.402344 5.269531 13.402344 7.117188C 13.398438 8.96875 11.898438 10.464844 10.050781 10.46875z" stroke="none" fill="#242F51" fill-rule="nonzero" />
	<g>
	</g>
    <path d="M10.050781 5.863281C 10.28125 5.863281 10.46875 6.050781 10.46875 6.28125C 10.46875 6.515625 10.65625 6.699219 10.886719 6.699219C 11.121094 6.699219 11.308594 6.515625 11.308594 6.28125C 11.308594 5.75 10.96875 5.273438 10.46875 5.097656L10.46875 5.097656L10.46875 5.023438C 10.46875 4.792969 10.28125 4.605469 10.050781 4.605469C 9.816406 4.605469 9.632812 4.792969 9.632812 5.023438L9.632812 5.023438L9.632812 5.097656C 9.054688 5.300781 8.707031 5.890625 8.8125 6.496094C 8.914062 7.097656 9.4375 7.539062 10.050781 7.539062C 10.28125 7.539062 10.46875 7.722656 10.46875 7.957031C 10.46875 8.1875 10.28125 8.375 10.050781 8.375C 9.816406 8.375 9.632812 8.1875 9.632812 7.957031C 9.632812 7.722656 9.445312 7.539062 9.214844 7.539062C 8.980469 7.539062 8.792969 7.722656 8.792969 7.957031C 8.792969 8.488281 9.132812 8.964844 9.632812 9.140625L9.632812 9.140625L9.632812 9.214844C 9.632812 9.445312 9.816406 9.632812 10.050781 9.632812C 10.28125 9.632812 10.46875 9.445312 10.46875 9.214844L10.46875 9.214844L10.46875 9.140625C 11.046875 8.9375 11.390625 8.347656 11.289062 7.742188C 11.1875 7.140625 10.664062 6.699219 10.050781 6.699219C 9.816406 6.699219 9.632812 6.515625 9.632812 6.28125C 9.632812 6.050781 9.816406 5.863281 10.050781 5.863281z" stroke="none" fill="#242F51" fill-rule="nonzero" />
	<g>
	</g>
    <path d="M12.144531 12.144531L3.769531 12.144531C 3.535156 12.144531 3.351562 12.332031 3.351562 12.5625C 3.351562 12.796875 3.535156 12.980469 3.769531 12.980469L3.769531 12.980469L12.144531 12.980469C 12.378906 12.980469 12.5625 12.796875 12.5625 12.5625C 12.5625 12.332031 12.378906 12.144531 12.144531 12.144531z" stroke="none" fill="#242F51" fill-rule="nonzero" />
	<g>
	</g>
    <path d="M12.144531 13.820312L3.769531 13.820312C 3.535156 13.820312 3.351562 14.003906 3.351562 14.238281C 3.351562 14.472656 3.535156 14.65625 3.769531 14.65625L3.769531 14.65625L12.144531 14.65625C 12.378906 14.65625 12.5625 14.472656 12.5625 14.238281C 12.5625 14.003906 12.378906 13.820312 12.144531 13.820312z" stroke="none" fill="#242F51" fill-rule="nonzero" />
	<g>
	</g>
    <path d="M12.144531 15.496094L3.769531 15.496094C 3.535156 15.496094 3.351562 15.679688 3.351562 15.914062C 3.351562 16.144531 3.535156 16.332031 3.769531 16.332031L3.769531 16.332031L12.144531 16.332031C 12.378906 16.332031 12.5625 16.144531 12.5625 15.914062C 12.5625 15.679688 12.378906 15.496094 12.144531 15.496094z" stroke="none" fill="#242F51" fill-rule="nonzero" />
	<g>
	</g>
    <path d="M12.144531 17.167969L3.769531 17.167969C 3.535156 17.167969 3.351562 17.355469 3.351562 17.589844C 3.351562 17.820312 3.535156 18.007812 3.769531 18.007812L3.769531 18.007812L12.144531 18.007812C 12.378906 18.007812 12.5625 17.820312 12.5625 17.589844C 12.5625 17.355469 12.378906 17.167969 12.144531 17.167969z" stroke="none" fill="#242F51" fill-rule="nonzero" />
	<g>
	</g>
    <path d="M12.144531 18.84375L3.769531 18.84375C 3.535156 18.84375 3.351562 19.03125 3.351562 19.261719C 3.351562 19.496094 3.535156 19.683594 3.769531 19.683594L3.769531 19.683594L12.144531 19.683594C 12.378906 19.683594 12.5625 19.496094 12.5625 19.261719C 12.5625 19.03125 12.378906 18.84375 12.144531 18.84375z" stroke="none" fill="#242F51" fill-rule="nonzero" />
	<g>
	</g>
    <path d="M16.332031 18.84375L14.65625 18.84375C 14.425781 18.84375 14.238281 19.03125 14.238281 19.261719C 14.238281 19.496094 14.425781 19.683594 14.65625 19.683594L14.65625 19.683594L16.332031 19.683594C 16.566406 19.683594 16.75 19.496094 16.75 19.261719C 16.75 19.03125 16.566406 18.84375 16.332031 18.84375z" stroke="none" fill="#242F51" fill-rule="nonzero" />
	<g>
	</g>
    <path d="M12.144531 20.519531L3.769531 20.519531C 3.535156 20.519531 3.351562 20.707031 3.351562 20.9375C 3.351562 21.171875 3.535156 21.355469 3.769531 21.355469L3.769531 21.355469L12.144531 21.355469C 12.378906 21.355469 12.5625 21.171875 12.5625 20.9375C 12.5625 20.707031 12.378906 20.519531 12.144531 20.519531z" stroke="none" fill="#242F51" fill-rule="nonzero" />
	<g>
	</g>
    <path d="M16.332031 20.519531L14.65625 20.519531C 14.425781 20.519531 14.238281 20.707031 14.238281 20.9375C 14.238281 21.171875 14.425781 21.355469 14.65625 21.355469L14.65625 21.355469L16.332031 21.355469C 16.566406 21.355469 16.75 21.171875 16.75 20.9375C 16.75 20.707031 16.566406 20.519531 16.332031 20.519531z" stroke="none" fill="#242F51" fill-rule="nonzero" />
	<g>
	</g>
    <path d="M19.261719 8.375C 16.953125 8.375 15.074219 10.253906 15.074219 12.5625C 15.074219 14.878906 16.953125 16.75 19.261719 16.75C 21.578125 16.75 23.453125 14.878906 23.453125 12.5625C 23.453125 10.253906 21.574219 8.378906 19.261719 8.375zM15.914062 12.5625C 15.917969 11.039062 16.949219 9.707031 18.425781 9.320312L18.425781 9.320312L18.425781 15.808594C 16.949219 15.425781 15.917969 14.089844 15.914062 12.5625zM19.261719 15.914062L19.261719 9.214844C 21.113281 9.214844 22.613281 10.714844 22.613281 12.5625C 22.613281 14.414062 21.113281 15.914062 19.261719 15.914062z" stroke="none" fill="#242F51" fill-rule="nonzero" />
	<g>
	</g>
    <path d="M25.839844 24.128906L23.90625 20.105469C 23.894531 20.054688 23.867188 20.003906 23.835938 19.957031L23.835938 19.957031L23.144531 18.523438C 23.09375 18.421875 23.007812 18.34375 22.90625 18.308594C 22.800781 18.269531 22.683594 18.277344 22.582031 18.328125L22.582031 18.328125L22.207031 18.511719L21.867188 17.816406C 24.308594 16.609375 25.59375 13.878906 24.976562 11.226562C 24.355469 8.578125 21.988281 6.699219 19.261719 6.699219L19.261719 6.699219L19.261719 1.257812C 19.261719 1.023438 19.078125 0.835938 18.84375 0.835938L18.84375 0.835938L1.257812 0.835938C 1.023438 0.835938 0.835938 1.023438 0.835938 1.257812L0.835938 1.257812L0.835938 23.492188C 0.835938 23.605469 0.882812 23.71875 0.964844 23.796875L0.964844 23.796875L2.222656 25.011719C 2.382812 25.164062 2.640625 25.164062 2.804688 25.011719L2.804688 25.011719L3.769531 24.074219L4.734375 25.011719C 4.898438 25.164062 5.152344 25.164062 5.316406 25.011719L5.316406 25.011719L6.28125 24.074219L7.246094 25.011719C 7.410156 25.164062 7.664062 25.164062 7.828125 25.011719L7.828125 25.011719L8.792969 24.074219L9.757812 25.011719C 9.921875 25.164062 10.179688 25.164062 10.339844 25.011719L10.339844 25.011719L11.308594 24.074219L12.273438 25.011719C 12.433594 25.164062 12.691406 25.164062 12.855469 25.011719L12.855469 25.011719L13.820312 24.074219L14.785156 25.011719C 14.949219 25.164062 15.203125 25.164062 15.367188 25.011719L15.367188 25.011719L16.332031 24.074219L17.296875 25.011719C 17.460938 25.164062 17.714844 25.164062 17.878906 25.011719L17.878906 25.011719L19.136719 23.796875C 19.21875 23.71875 19.261719 23.605469 19.261719 23.492188L19.261719 23.492188L19.261719 18.425781C 19.882812 18.425781 20.5 18.328125 21.089844 18.136719L21.089844 18.136719L21.453125 18.878906L21.078125 19.0625C 20.867188 19.164062 20.785156 19.410156 20.882812 19.621094L20.882812 19.621094L23.582031 25.226562C 23.886719 25.851562 24.636719 26.109375 25.261719 25.808594C 25.886719 25.503906 26.144531 24.753906 25.839844 24.128906zM18.425781 23.316406L17.589844 24.125L16.621094 23.191406C 16.460938 23.035156 16.203125 23.035156 16.042969 23.191406L16.042969 23.191406L15.074219 24.125L14.109375 23.191406C 13.949219 23.035156 13.691406 23.035156 13.527344 23.191406L13.527344 23.191406L12.5625 24.125L11.597656 23.191406C 11.433594 23.035156 11.179688 23.035156 11.015625 23.191406L11.015625 23.191406L10.050781 24.125L9.085938 23.191406C 8.921875 23.035156 8.667969 23.035156 8.503906 23.191406L8.503906 23.191406L7.539062 24.125L6.574219 23.191406C 6.410156 23.035156 6.152344 23.035156 5.992188 23.191406L5.992188 23.191406L5.023438 24.125L4.058594 23.191406C 3.898438 23.035156 3.640625 23.035156 3.476562 23.191406L3.476562 23.191406L2.511719 24.125L1.675781 23.316406L1.675781 1.675781L18.425781 1.675781L18.425781 6.761719C 18.140625 6.800781 17.855469 6.867188 17.578125 6.949219C 17.503906 6.394531 17.070312 5.960938 16.519531 5.875C 15.964844 5.792969 15.425781 6.082031 15.191406 6.589844C 14.957031 7.101562 15.085938 7.699219 15.511719 8.066406C 14.148438 9.199219 13.378906 10.882812 13.40625 12.648438C 13.429688 14.417969 14.253906 16.082031 15.640625 17.167969L15.640625 17.167969L14.65625 17.167969C 14.425781 17.167969 14.238281 17.355469 14.238281 17.589844C 14.238281 17.820312 14.425781 18.007812 14.65625 18.007812L14.65625 18.007812L16.332031 18.007812C 16.472656 18.007812 16.601562 17.9375 16.675781 17.824219C 17.226562 18.097656 17.816406 18.277344 18.425781 18.363281zM16.261719 7.53125C 16.085938 7.5 15.949219 7.363281 15.921875 7.1875C 15.894531 7.011719 15.980469 6.835938 16.132812 6.753906C 16.289062 6.667969 16.484375 6.691406 16.613281 6.808594C 16.742188 6.929688 16.785156 7.117188 16.71875 7.28125C 16.566406 7.359375 16.410156 7.441406 16.261719 7.53125zM19.261719 17.589844C 16.492188 17.589844 14.238281 15.339844 14.238281 12.5625C 14.238281 9.785156 16.492188 7.539062 19.261719 7.539062C 22.039062 7.539062 24.289062 9.785156 24.289062 12.5625C 24.289062 15.335938 22.039062 17.585938 19.261719 17.589844zM21.820312 19.632812L22.195312 19.449219L22.570312 19.261719L22.9375 20.019531L22.179688 20.386719zM25.105469 24.816406C 25.050781 24.976562 24.90625 25.082031 24.738281 25.09375C 24.566406 25.105469 24.410156 25.015625 24.335938 24.863281L24.335938 24.863281L22.542969 21.140625L23.296875 20.777344L25.085938 24.496094C 25.136719 24.59375 25.140625 24.707031 25.105469 24.816406z" stroke="none" fill="#242F51" fill-rule="nonzero" />
</g>
</svg>