<?xml version="1.0" encoding="iso-8859-1"?>
<!-- Generator: Adobe Illustrator 17.1.0, SVG Export Plug-In . SVG Version: 6.00 Build 0)  -->
<!DOCTYPE svg PUBLIC "-//W3C//DTD SVG 1.1//EN" "http://www.w3.org/Graphics/SVG/1.1/DTD/svg11.dtd">
<svg version="1.1" id="Capa_1" xmlns="http://www.w3.org/2000/svg" xmlns:xlink="http://www.w3.org/1999/xlink" x="0px" y="0px"
	 viewBox="0 0 385.889 385.889" style="enable-background:new 0 0 385.889 385.889;" fill="#242f51" xml:space="preserve">
<g>
	<path d="M285.331,269.982c-3.436-2.309-8.097-1.394-10.408,2.043c-3.908,5.817-8.21,11.278-12.842,16.378
		c-12.32-9.994-26.125-18.052-40.946-24.014c0.592-2.608,1.164-5.25,1.695-7.956c0.798-4.064-1.85-8.007-5.914-8.805
		c-4.065-0.797-8.007,1.851-8.805,5.914c-0.389,1.982-0.803,3.928-1.228,5.856c-15.879-4.763-32.68-7.246-49.901-7.246
		c-17.166,0-33.988,2.498-49.909,7.285c-3.997-18.119-6.327-38.127-6.776-58.993h83.866c4.143,0,7.5-3.357,7.5-7.5
		s-3.357-7.5-7.5-7.5h-83.866c0.483-22.475,3.147-43.957,7.731-63.151c16.669,5.309,34.403,8.076,52.604,8.076
		c15.68,0,31.071-2.088,45.753-6.095c0.6,2.611,1.173,5.267,1.707,7.98c0.801,4.063,4.737,6.707,8.808,5.911
		c4.063-0.8,6.71-4.743,5.911-8.808c-0.651-3.306-1.352-6.531-2.092-9.69c14.792-5.502,28.652-13.048,41.09-22.476
		c4.598,5.032,8.873,10.417,12.763,16.152c2.326,3.429,6.99,4.319,10.417,1.997c3.428-2.325,4.322-6.989,1.997-10.417
		c-29.292-43.183-77.892-68.963-130.004-68.963C70.422,35.961,0,106.384,0,192.944s70.422,156.983,156.982,156.983
		c52.392,0,101.136-25.995,130.392-69.538C289.684,276.951,288.77,272.292,285.331,269.982z M251.348,299.034
		c-16.899,15.04-37.132,25.816-59.03,31.433c10.099-12.161,18.687-29.665,25.033-51.42
		C229.595,284.16,241.032,290.864,251.348,299.034z M156.982,267.152c15.975,0,31.54,2.334,46.215,6.805
		c-10.718,37.182-28.291,60.97-46.215,60.97c-13.778,0-27.831-14.305-38.554-39.245c-2.885-6.709-5.447-13.978-7.677-21.693
		C125.468,269.496,141.057,267.152,156.982,267.152z M104.648,301.608c4.999,11.626,10.72,21.301,16.985,28.865
		c-22.208-5.711-42.326-16.681-58.956-31.488c10.29-8.127,21.725-14.8,33.95-19.903C98.968,287.065,101.642,294.614,104.648,301.608
		z M160.633,115.37c-16.859,0-33.263-2.595-48.643-7.563c1.929-6.198,4.071-12.094,6.439-17.601
		c10.723-24.94,24.775-39.245,38.554-39.245c17.571,0,34.812,22.872,45.581,58.812C189.124,113.453,175.017,115.37,160.633,115.37z
		 M97.942,102.479c-11.293-4.944-21.872-11.254-31.48-18.836c15.863-13.16,34.624-22.942,55.172-28.227
		c-6.266,7.564-11.987,17.239-16.985,28.865C102.191,89.998,99.958,96.089,97.942,102.479z M192.322,55.431
		c21.733,5.581,41.837,16.244,58.664,31.112c-10.427,7.651-21.92,13.877-34.147,18.558
		C210.548,84.156,202.149,67.266,192.322,55.431z M55.318,93.941c11.652,9.487,24.635,17.247,38.558,23.127
		c-5.117,20.793-8.079,44.079-8.582,68.377H15.198C17.055,149.945,32.016,117.863,55.318,93.941z M15.198,200.444h70.096
		c0.468,22.595,3.055,44.325,7.529,63.982c-14.802,5.954-28.595,14.001-40.883,23.947C30.572,264.874,16.964,234.201,15.198,200.444
		z"/>
	<path d="M274.668,150.122c-24.942,0-45.235,20.293-45.235,45.235c0,4.143,3.357,7.5,7.5,7.5s7.5-3.357,7.5-7.5
		c0-16.672,13.563-30.235,30.235-30.235c4.143,0,7.5-3.357,7.5-7.5S278.811,150.122,274.668,150.122z"/>
	<path d="M383.692,274.765l-33.284-33.284c-2.93-2.928-7.678-2.928-10.607,0c-2.929,2.93-2.929,7.678,0,10.607l27.981,27.98
		l-8.403,8.403l-41.421-41.422c1.51-1.269,2.981-2.598,4.393-4.01c12.736-12.736,19.75-29.671,19.75-47.683
		s-7.014-34.946-19.75-47.683s-29.671-19.75-47.683-19.75s-34.946,7.014-47.683,19.75s-19.75,29.671-19.75,47.683
		s7.014,34.946,19.75,47.683s29.671,19.75,47.683,19.75c10.788,0,21.182-2.534,30.527-7.289l48.881,48.881
		c1.465,1.464,3.385,2.196,5.304,2.196s3.839-0.732,5.304-2.196l19.01-19.01C386.621,282.443,386.621,277.694,383.692,274.765z
		 M237.593,232.433c-9.903-9.903-15.357-23.07-15.357-37.075s5.454-27.172,15.357-37.075s23.07-15.357,37.075-15.357
		s27.172,5.454,37.075,15.357s15.357,23.07,15.357,37.075s-5.454,27.172-15.357,37.075s-23.07,15.357-37.075,15.357
		S247.496,242.336,237.593,232.433z"/>
</g>
<g>
</g>
<g>
</g>
<g>
</g>
<g>
</g>
<g>
</g>
<g>
</g>
<g>
</g>
<g>
</g>
<g>
</g>
<g>
</g>
<g>
</g>
<g>
</g>
<g>
</g>
<g>
</g>
<g>
</g>
</svg>
