<svg xmlns="http://www.w3.org/2000/svg" width="27" height="27" viewBox="0 0 27 27">
    <g fill="none" fill-rule="evenodd">
        <g stroke="#FD627A" stroke-width="1.5">
            <g>
                <path d="M12.257 23.72c6.345 0 11.491-5.137 11.491-11.48 0-6.336-5.146-11.474-11.491-11.474C5.91.766.765 5.904.765 12.24c0 6.343 5.145 11.48 11.492 11.48z" transform="translate(1.300000, 1.300000)"/>
                <path d="M12.257 23.72c3.384 0 6.129-5.137 6.129-11.48 0-6.336-2.745-11.474-6.13-11.474-3.383 0-6.128 5.138-6.128 11.474 0 6.343 2.745 11.48 6.129 11.48z" transform="translate(1.300000, 1.300000)"/>
                <path stroke-linecap="square" d="M1.528 12.292h21.888M12.257 1.144v21.862" transform="translate(1.300000, 1.300000)"/>
            </g>
        </g>
    </g>
</svg>
