<?xml version="1.0" standalone="no"?>
<!DOCTYPE svg PUBLIC "-//W3C//DTD SVG 20010904//EN"
 "http://www.w3.org/TR/2001/REC-SVG-20010904/DTD/svg10.dtd">
<svg version="1.0" xmlns="http://www.w3.org/2000/svg"
 width="100%" height="100%" viewBox="0 0 512.000000 512.000000"
 preserveAspectRatio="xMidYMid meet">

<g transform="translate(0.000000,512.000000) scale(0.100000,-0.100000)"
fill="#F55767" stroke="none">
<path d="M2340 5109 c-497 -43 -981 -237 -1380 -555 -126 -100 -333 -313 -432
-444 -116 -154 -186 -267 -270 -438 -54 -111 -81 -154 -123 -196 -60 -59 -107
-145 -124 -224 -15 -74 -15 -1310 0 -1384 17 -79 64 -165 124 -224 42 -42 69
-85 123 -196 84 -171 154 -284 270 -438 99 -131 306 -344 432 -444 753 -599
1756 -731 2630 -346 294 130 546 304 785 544 206 208 356 417 487 684 54 111
81 154 123 196 60 59 107 145 124 224 15 74 15 1310 0 1384 -17 79 -64 165
-124 224 -42 42 -69 85 -123 196 -84 171 -154 284 -270 438 -99 131 -306 344
-432 444 -520 413 -1168 611 -1820 555z m70 -909 l0 -590 -385 0 c-212 0 -385
4 -385 9 0 4 18 69 40 144 130 440 345 793 583 956 45 30 123 70 140 71 4 0 7
-265 7 -590z m405 545 c241 -133 459 -470 615 -953 28 -84 50 -160 50 -168 0
-12 -58 -14 -385 -14 l-385 0 0 591 0 590 23 -6 c12 -4 49 -22 82 -40z m-1032
-77 c-5 -7 -37 -56 -71 -108 -132 -198 -271 -521 -348 -807 l-38 -143 -383 0
-384 0 12 23 c98 182 269 402 439 562 204 193 392 317 670 441 105 47 115 50
103 32z m1632 -22 c335 -141 616 -343 850 -611 101 -115 223 -288 284 -402
l12 -23 -384 0 -383 0 -38 143 c-77 286 -216 609 -348 807 -81 123 -80 120
-76 120 2 0 39 -15 83 -34z m1325 -1356 c68 -35 80 -73 80 -247 l-1 -148 -20
37 c-22 43 -81 78 -131 78 -18 0 -51 -10 -73 -23 -35 -20 -50 -41 -125 -187
-47 -91 -90 -174 -97 -184 -9 -17 -23 5 -102 162 -103 203 -125 227 -211 227
-86 0 -109 -24 -207 -221 -49 -96 -90 -174 -93 -174 -3 0 -41 72 -85 160 -44
88 -90 171 -103 185 -74 80 -185 70 -248 -23 l-21 -31 -16 34 c-19 40 -80 75
-129 75 -18 0 -51 -10 -73 -23 -36 -20 -49 -40 -130 -199 -49 -98 -92 -178
-95 -178 -3 0 -44 78 -93 174 -98 197 -121 221 -207 221 -86 0 -109 -24 -207
-221 -49 -96 -90 -174 -93 -174 -3 0 -45 80 -95 178 -81 159 -94 179 -130 199
-22 13 -55 23 -73 23 -49 0 -110 -35 -129 -75 l-16 -34 -21 31 c-63 93 -174
103 -248 23 -13 -14 -59 -97 -103 -185 -44 -88 -82 -160 -85 -160 -3 0 -41 71
-84 158 -87 175 -98 191 -147 221 -44 27 -95 27 -139 0 -48 -30 -50 -32 -146
-223 -75 -149 -87 -167 -97 -150 -7 10 -50 93 -97 184 -75 146 -90 167 -125
187 -22 13 -55 23 -73 23 -50 0 -109 -35 -131 -78 l-20 -37 -1 148 c0 172 12
212 78 246 36 20 66 20 2180 21 2128 0 2143 0 2182 -20z m-4100 -1117 c24 -32
82 -63 120 -63 38 0 93 29 120 63 10 12 53 92 96 179 43 87 81 158 84 158 3 0
41 -71 84 -158 43 -87 86 -167 96 -179 27 -34 82 -63 120 -63 36 0 94 29 117
59 8 9 86 159 174 333 l160 318 159 -318 c88 -174 165 -324 172 -333 24 -30
83 -59 118 -59 38 0 93 29 120 63 10 12 53 92 96 179 43 87 81 158 84 158 3 0
41 -71 84 -158 43 -87 86 -167 96 -179 27 -34 82 -63 120 -63 35 0 94 29 118
59 7 9 84 159 172 333 l159 318 160 -318 c88 -174 166 -324 174 -333 23 -30
81 -59 117 -59 38 0 93 29 120 63 10 12 53 92 96 179 43 87 81 158 84 158 3 0
41 -71 84 -158 43 -87 86 -167 96 -179 27 -34 82 -63 120 -63 38 0 96 31 120
63 8 12 88 163 177 337 l163 315 0 -448 c0 -429 -1 -449 -20 -487 -13 -26 -34
-47 -60 -60 -39 -20 -54 -20 -2180 -20 -2126 0 -2141 0 -2180 20 -26 13 -47
34 -60 60 -19 38 -20 58 -20 487 l0 448 163 -315 c89 -174 169 -325 177 -337z
m724 -805 c79 -294 217 -614 354 -818 39 -58 69 -106 68 -107 -4 -5 -158 63
-255 112 -305 153 -600 407 -807 695 -56 78 -123 181 -153 238 l-12 22 384 0
383 0 38 -142z m1046 -449 l0 -590 -22 6 c-13 4 -50 22 -83 40 -241 133 -459
470 -615 953 -28 84 -50 160 -50 168 0 12 58 14 385 14 l385 0 0 -591z m1065
559 c-14 -60 -87 -282 -122 -368 -54 -130 -149 -316 -212 -410 -75 -115 -237
-277 -321 -323 -36 -19 -75 -38 -87 -42 l-23 -6 0 590 0 591 386 0 386 0 -7
-32z m1059 -15 c-181 -316 -453 -603 -757 -800 -54 -35 -139 -84 -190 -109
-95 -48 -249 -116 -253 -111 -1 1 29 49 67 107 124 187 222 399 307 660 27 85
57 188 67 228 l17 72 384 0 385 0 -27 -47z"/>
</g>
</svg>
