<svg xmlns="http://www.w3.org/2000/svg" width="32" height="32" fill="#A8A8A8" viewBox="0 0 1000 1000">
        <path d="M 900 163C 934 163 962 191 962 225C 962 225 962 305 962 305C 962 305 579 569 579 569C 545 592 521 600 500 600C 479 600 455 592 421 569C 421 569 38 305 38 305C 38 305 38 225 38 225C 38 191 66 163 100 163C 100 163 900 163 900 163M 379 631C 379 631 379 631 379 631C 420 658 459 675 500 675C 541 675 580 658 621 631C 621 631 621 631 621 631C 621 631 962 396 962 396C 962 396 962 800 962 800C 962 834 934 862 900 862C 900 862 100 862 100 862C 66 862 38 834 38 800C 38 800 38 396 38 396C 38 396 379 631 379 631"></path>
</svg>
